<svg width="21" height="21" viewBox="0 0 21 21" fill="none" xmlns="http://www.w3.org/2000/svg">
<path d="M4.63488 20.7643V6.90597H0.324441V20.7643H4.63488ZM2.50284 5.00567C3.15172 5.00567 3.75426 4.77393 4.2641 4.2641C4.72759 3.80061 5.00567 3.19807 5.00567 2.50284C5.00567 1.85395 4.72759 1.25142 4.2641 0.741582C3.75426 0.278093 3.15172 0 2.50284 0C1.80761 0 1.20507 0.278093 0.741581 0.741582C0.231744 1.25142 0 1.85395 0 2.50284C0 3.19807 0.231744 3.80061 0.741581 4.2641C1.20507 4.77393 1.80761 5.00567 2.50284 5.00567ZM20.7644 20.7643V13.1631C20.7644 11.031 20.4398 9.45517 19.8373 8.43549C19.003 7.18408 17.6125 6.53519 15.6196 6.53519C14.5999 6.53519 13.7656 6.81328 13.024 7.27677C12.3288 7.69391 11.819 8.20374 11.5409 8.80628H11.4945V6.90597H7.36948V20.7643H11.6336V13.9046C11.6336 12.8386 11.7726 12.0044 12.097 11.4482C12.4678 10.7066 13.1631 10.3358 14.1828 10.3358C15.1561 10.3358 15.8049 10.7529 16.1757 11.5872C16.3612 12.097 16.4539 12.885 16.4539 13.9974V20.7643H20.7644Z" fill="#242424"/>
</svg>
