<svg width="43" height="43" viewBox="0 0 43 43" fill="none" xmlns="http://www.w3.org/2000/svg">
<circle cx="21.395" cy="21.395" r="21.395" transform="matrix(-1 0 0 1 42.79 3.05176e-05)" fill="#9FE870"/>
<path d="M17.9758 28.2432H12.7898C11.9847 28.2432 11.24 27.8139 10.8358 27.1163L8.24448 22.6268V22.6252H8.2428L4.99902 17.0088H8.51787C10.3544 17.0088 12.0535 17.9882 12.9709 19.5797L14.7304 22.6252L17.9758 28.2432Z" fill="#002E22"/>
<path d="M17.9772 25.9507L14.7334 20.3327L16.4928 17.2855C17.4119 15.6957 19.1093 14.7146 20.9459 14.7146H24.463L21.2193 20.331V20.3327L17.9772 25.9507Z" fill="#002E22"/>
<path d="M30.9501 28.2433H25.7641C24.959 28.2433 24.2143 27.8139 23.8101 27.1163L21.2188 22.6269V22.6252L24.4625 17.0088H24.4642L27.708 22.6252H27.7097V22.6269L30.9501 28.2433Z" fill="#002E22"/>
<path d="M30.9528 25.9508L27.709 20.3344V20.3327L29.4684 17.2872C30.3875 15.6957 32.0849 14.7163 33.9215 14.7163H37.4403L34.1965 20.3327H34.1949L30.9528 25.9508Z" fill="#002E22"/>
</svg>
